<svg xmlns="http://www.w3.org/2000/svg" xmlns:xlink="http://www.w3.org/1999/xlink" width="100" zoomAndPan="magnify" viewBox="0 0 75 30.000001" height="40" preserveAspectRatio="xMidYMid meet" version="1.0"><defs><g/><clipPath id="0133ca587f"><path d="M 1.210938 6 L 73 6 L 73 25 L 1.210938 25 Z M 1.210938 6 " clip-rule="nonzero"/></clipPath><clipPath id="2b8c8a456c"><path d="M 28 1 L 71.976562 1 L 71.976562 16 L 28 16 Z M 28 1 " clip-rule="nonzero"/></clipPath><clipPath id="afa0844cd9"><path d="M 37 5 L 43.976562 5 L 43.976562 14 L 37 14 Z M 37 5 " clip-rule="nonzero"/></clipPath><clipPath id="ad18d4259d"><rect x="0" width="44" y="0" height="15"/></clipPath><clipPath id="ec80912eef"><path d="M 0.210938 0.503906 L 15 0.503906 L 15 9 L 0.210938 9 Z M 0.210938 0.503906 " clip-rule="nonzero"/></clipPath><clipPath id="9c8394e170"><path d="M 21 4 L 27.660156 4 L 27.660156 17 L 21 17 Z M 21 4 " clip-rule="nonzero"/></clipPath><clipPath id="f2f623740f"><rect x="0" width="72" y="0" height="19"/></clipPath></defs><g clip-path="url(#0133ca587f)"><g transform="matrix(1, 0, 0, 1, 1, 6)"><g clip-path="url(#f2f623740f)"><g clip-path="url(#2b8c8a456c)"><g transform="matrix(1, 0, 0, 1, 28, 1)"><g clip-path="url(#ad18d4259d)"><g fill="#fffef1" fill-opacity="1"><g transform="translate(0.877122, 10.819506)"><g><path d="M 0.703125 2.359375 L 0.703125 -5.328125 L 1.921875 -5.328125 L 2.078125 -4.5625 C 2.242188 -4.800781 2.46875 -5.007812 2.75 -5.1875 C 3.039062 -5.375 3.410156 -5.46875 3.859375 -5.46875 C 4.359375 -5.46875 4.804688 -5.34375 5.203125 -5.09375 C 5.597656 -4.851562 5.910156 -4.519531 6.140625 -4.09375 C 6.367188 -3.675781 6.484375 -3.195312 6.484375 -2.65625 C 6.484375 -2.113281 6.367188 -1.632812 6.140625 -1.21875 C 5.910156 -0.800781 5.597656 -0.472656 5.203125 -0.234375 C 4.804688 0.00390625 4.359375 0.125 3.859375 0.125 C 3.453125 0.125 3.097656 0.0507812 2.796875 -0.09375 C 2.503906 -0.25 2.265625 -0.460938 2.078125 -0.734375 L 2.078125 2.359375 Z M 3.5625 -1.078125 C 4 -1.078125 4.359375 -1.222656 4.640625 -1.515625 C 4.929688 -1.804688 5.078125 -2.1875 5.078125 -2.65625 C 5.078125 -3.125 4.929688 -3.503906 4.640625 -3.796875 C 4.359375 -4.097656 4 -4.25 3.5625 -4.25 C 3.125 -4.25 2.757812 -4.097656 2.46875 -3.796875 C 2.1875 -3.503906 2.046875 -3.128906 2.046875 -2.671875 C 2.046875 -2.203125 2.1875 -1.816406 2.46875 -1.515625 C 2.757812 -1.222656 3.125 -1.078125 3.5625 -1.078125 Z M 3.5625 -1.078125 "/></g></g></g><g fill="#fffef1" fill-opacity="1"><g transform="translate(7.571826, 10.819506)"><g><path d="M 2.53125 0.125 C 2.070312 0.125 1.695312 0.0507812 1.40625 -0.09375 C 1.113281 -0.238281 0.894531 -0.429688 0.75 -0.671875 C 0.601562 -0.921875 0.53125 -1.191406 0.53125 -1.484375 C 0.53125 -1.972656 0.722656 -2.375 1.109375 -2.6875 C 1.503906 -3 2.085938 -3.15625 2.859375 -3.15625 L 4.21875 -3.15625 L 4.21875 -3.28125 C 4.21875 -3.644531 4.113281 -3.910156 3.90625 -4.078125 C 3.695312 -4.253906 3.4375 -4.34375 3.125 -4.34375 C 2.84375 -4.34375 2.597656 -4.273438 2.390625 -4.140625 C 2.179688 -4.003906 2.054688 -3.8125 2.015625 -3.5625 L 0.671875 -3.5625 C 0.703125 -3.945312 0.828125 -4.28125 1.046875 -4.5625 C 1.273438 -4.851562 1.566406 -5.078125 1.921875 -5.234375 C 2.285156 -5.390625 2.691406 -5.46875 3.140625 -5.46875 C 3.898438 -5.46875 4.5 -5.273438 4.9375 -4.890625 C 5.375 -4.515625 5.59375 -3.976562 5.59375 -3.28125 L 5.59375 0 L 4.421875 0 L 4.296875 -0.859375 C 4.128906 -0.578125 3.90625 -0.34375 3.625 -0.15625 C 3.34375 0.03125 2.976562 0.125 2.53125 0.125 Z M 2.84375 -0.953125 C 3.238281 -0.953125 3.546875 -1.078125 3.765625 -1.328125 C 3.984375 -1.585938 4.125 -1.910156 4.1875 -2.296875 L 3.015625 -2.296875 C 2.648438 -2.296875 2.382812 -2.226562 2.21875 -2.09375 C 2.0625 -1.957031 1.984375 -1.796875 1.984375 -1.609375 C 1.984375 -1.398438 2.0625 -1.238281 2.21875 -1.125 C 2.382812 -1.007812 2.59375 -0.953125 2.84375 -0.953125 Z M 2.84375 -0.953125 "/></g></g></g><g fill="#fffef1" fill-opacity="1"><g transform="translate(13.385365, 10.819506)"><g><path d="M 3.078125 0 C 2.515625 0 2.0625 -0.132812 1.71875 -0.40625 C 1.382812 -0.675781 1.21875 -1.160156 1.21875 -1.859375 L 1.21875 -4.1875 L 0.3125 -4.1875 L 0.3125 -5.328125 L 1.21875 -5.328125 L 1.390625 -6.765625 L 2.59375 -6.765625 L 2.59375 -5.328125 L 4.046875 -5.328125 L 4.046875 -4.1875 L 2.59375 -4.1875 L 2.59375 -1.84375 C 2.59375 -1.59375 2.648438 -1.414062 2.765625 -1.3125 C 2.878906 -1.21875 3.070312 -1.171875 3.34375 -1.171875 L 4.015625 -1.171875 L 4.015625 0 Z M 3.078125 0 "/></g></g></g><g fill="#fffef1" fill-opacity="1"><g transform="translate(17.597758, 10.819506)"><g><path d="M 0.703125 0 L 0.703125 -7.734375 L 2.078125 -7.734375 L 2.078125 -4.515625 C 2.253906 -4.804688 2.492188 -5.035156 2.796875 -5.203125 C 3.097656 -5.378906 3.445312 -5.46875 3.84375 -5.46875 C 4.507812 -5.46875 5.019531 -5.257812 5.375 -4.84375 C 5.738281 -4.425781 5.921875 -3.816406 5.921875 -3.015625 L 5.921875 0 L 4.5625 0 L 4.5625 -2.875 C 4.5625 -3.332031 4.46875 -3.679688 4.28125 -3.921875 C 4.101562 -4.171875 3.816406 -4.296875 3.421875 -4.296875 C 3.035156 -4.296875 2.710938 -4.160156 2.453125 -3.890625 C 2.203125 -3.617188 2.078125 -3.238281 2.078125 -2.75 L 2.078125 0 Z M 0.703125 0 "/></g></g></g><g fill="#fffef1" fill-opacity="1"><g transform="translate(23.819642, 10.819506)"><g><path d="M 1.734375 0 L 0.1875 -5.328125 L 1.546875 -5.328125 L 2.46875 -1.5 L 3.546875 -5.328125 L 5.078125 -5.328125 L 6.15625 -1.5 L 7.078125 -5.328125 L 8.453125 -5.328125 L 6.875 0 L 5.453125 0 L 4.3125 -3.984375 L 3.171875 0 Z M 1.734375 0 "/></g></g></g><g fill="#fffef1" fill-opacity="1"><g transform="translate(31.857585, 10.819506)"><g><path d="M 2.53125 0.125 C 2.070312 0.125 1.695312 0.0507812 1.40625 -0.09375 C 1.113281 -0.238281 0.894531 -0.429688 0.75 -0.671875 C 0.601562 -0.921875 0.53125 -1.191406 0.53125 -1.484375 C 0.53125 -1.972656 0.722656 -2.375 1.109375 -2.6875 C 1.503906 -3 2.085938 -3.15625 2.859375 -3.15625 L 4.21875 -3.15625 L 4.21875 -3.28125 C 4.21875 -3.644531 4.113281 -3.910156 3.90625 -4.078125 C 3.695312 -4.253906 3.4375 -4.34375 3.125 -4.34375 C 2.84375 -4.34375 2.597656 -4.273438 2.390625 -4.140625 C 2.179688 -4.003906 2.054688 -3.8125 2.015625 -3.5625 L 0.671875 -3.5625 C 0.703125 -3.945312 0.828125 -4.28125 1.046875 -4.5625 C 1.273438 -4.851562 1.566406 -5.078125 1.921875 -5.234375 C 2.285156 -5.390625 2.691406 -5.46875 3.140625 -5.46875 C 3.898438 -5.46875 4.5 -5.273438 4.9375 -4.890625 C 5.375 -4.515625 5.59375 -3.976562 5.59375 -3.28125 L 5.59375 0 L 4.421875 0 L 4.296875 -0.859375 C 4.128906 -0.578125 3.90625 -0.34375 3.625 -0.15625 C 3.34375 0.03125 2.976562 0.125 2.53125 0.125 Z M 2.84375 -0.953125 C 3.238281 -0.953125 3.546875 -1.078125 3.765625 -1.328125 C 3.984375 -1.585938 4.125 -1.910156 4.1875 -2.296875 L 3.015625 -2.296875 C 2.648438 -2.296875 2.382812 -2.226562 2.21875 -2.09375 C 2.0625 -1.957031 1.984375 -1.796875 1.984375 -1.609375 C 1.984375 -1.398438 2.0625 -1.238281 2.21875 -1.125 C 2.382812 -1.007812 2.59375 -0.953125 2.84375 -0.953125 Z M 2.84375 -0.953125 "/></g></g></g><g clip-path="url(#afa0844cd9)"><g fill="#fffef1" fill-opacity="1"><g transform="translate(37.563662, 10.819506)"><g><path d="M 1.359375 2.359375 L 2.59375 -0.359375 L 2.28125 -0.359375 L 0.203125 -5.328125 L 1.703125 -5.328125 L 3.1875 -1.578125 L 4.75 -5.328125 L 6.21875 -5.328125 L 2.828125 2.359375 Z M 1.359375 2.359375 "/></g></g></g></g></g></g></g><g clip-path="url(#ec80912eef)"><path fill="#ff9e7a" d="M 0.210938 0.644531 L 14.992188 4.144531 L 7.820312 8.601562 L 8.082031 5.628906 Z M 0.210938 0.644531 " fill-opacity="1" fill-rule="evenodd"/></g><g clip-path="url(#9c8394e170)"><path fill="#d4edf4" d="M 21.636719 16.386719 L 24 4.84375 L 27.671875 10.265625 L 25.3125 10.175781 Z M 21.636719 16.386719 " fill-opacity="1" fill-rule="evenodd"/></g><path fill="#f46530" d="M 5.542969 12.625 L 22.773438 1.78125 L 20.324219 12.890625 L 17.703125 9.828125 Z M 5.542969 12.625 " fill-opacity="1" fill-rule="evenodd"/></g></g></g></svg>